<svg id="Layer_1" data-name="Layer 1" xmlns="http://www.w3.org/2000/svg" viewBox="0 0 30.15 24"><defs><style>.cls-1{fill:#f36d2a;fill-rule:evenodd;}</style></defs><g id="logo"><path id="Shape" class="cls-1" d="M12.56,14.13H6.32C2.26,14.13,0,16.51,0,19.32S2.19,24,5.1,24s4.43-1.45,6.05-4l2.5-3.94H25.84a.09.09,0,0,0,.09-.1V14.22a.09.09,0,0,0-.09-.09h-11l2.72-4.26h6.22c4.06,0,6.34-2.38,6.34-5.19S28,0,25.05,0,20.61,1.45,19,4L16.5,7.93H4.29a.11.11,0,0,0-.07,0A.14.14,0,0,0,4.2,8V9.78a.09.09,0,0,0,.09.09h11l-2.7,4.26Zm-3,4.92C8.36,20.87,7.17,22,5.45,22a2.72,2.72,0,0,1-3-2.81C2.49,17.6,3.57,16,6.39,16h5.07L9.52,19.05ZM20.63,5C21.79,3.13,23,2,24.7,2a2.73,2.73,0,0,1,3,2.81C27.66,6.4,26.56,8,23.74,8h-5l1.94-3Z"/></g></svg>